<svg xmlns="http://www.w3.org/2000/svg" width="17" height="13" viewBox="0 0 17 13" fill="none">
<path d="M14.471 1.86997C14.471 0.853573 13.7207 0.0219727 12.8038 0.0219727H10.303V1.86997H12.8038V4.31857L9.90286 8.33797H6.96859V3.71797H3.6342C1.79195 3.71797 0.299805 5.37193 0.299805 7.41397V10.186H1.967C1.967 11.7198 3.08402 12.958 4.4678 12.958C5.85157 12.958 6.96859 11.7198 6.96859 10.186H10.7031L14.471 4.96537V1.86997ZM4.4678 11.11C4.00932 11.11 3.6342 10.6942 3.6342 10.186H5.30139C5.30139 10.6942 4.92627 11.11 4.4678 11.11Z" fill="black"/>
<path d="M6.96853 0.945801H2.80054V2.7938H6.96853V0.945801Z" fill="black"/>
<path d="M14.471 7.41406C13.0872 7.41406 11.9702 8.65222 11.9702 10.1861C11.9702 11.7199 13.0872 12.9581 14.471 12.9581C15.8548 12.9581 16.9718 11.7199 16.9718 10.1861C16.9718 8.65222 15.8548 7.41406 14.471 7.41406ZM14.471 11.1101C14.0125 11.1101 13.6374 10.6943 13.6374 10.1861C13.6374 9.67786 14.0125 9.26206 14.471 9.26206C14.9295 9.26206 15.3046 9.67786 15.3046 10.1861C15.3046 10.6943 14.9295 11.1101 14.471 11.1101Z" fill="black"/>
</svg>